<svg viewBox="0 0 120 120" xmlns="http://www.w3.org/2000/svg">
  <!-- Background circle for logo mark -->
  <circle cx="60" cy="60" r="45" fill="#2c3e50" stroke="#34495e" stroke-width="2"/>
  <!-- Pixel canvas icon -->
  <g transform="translate(25, 25)">
    <!-- Canvas background -->
    <rect x="10" y="10" width="30" height="30" fill="#f8f9fa" stroke="#dee2e6" stroke-width="1"/>
    <!-- Grid lines for pixel effect -->
    <g stroke="#e9ecef" stroke-width="0.5" opacity="0.5">
      <!-- Vertical lines -->
      <line x1="15" y1="10" x2="15" y2="40"/>
      <line x1="20" y1="10" x2="20" y2="40"/>
      <line x1="25" y1="10" x2="25" y2="40"/>
      <line x1="30" y1="10" x2="30" y2="40"/>
      <line x1="35" y1="10" x2="35" y2="40"/>
      <!-- Horizontal lines -->
      <line x1="10" y1="15" x2="40" y2="15"/>
      <line x1="10" y1="20" x2="40" y2="20"/>
      <line x1="10" y1="25" x2="40" y2="25"/>
      <line x1="10" y1="30" x2="40" y2="30"/>
      <line x1="10" y1="35" x2="40" y2="35"/>
    </g>
    <!-- Black pixels on canvas (hand-drawn style) -->
    <rect x="15" y="15" width="5" height="5" fill="#2c3e50"/>
    <rect x="20" y="15" width="5" height="5" fill="#2c3e50"/>
    <rect x="25" y="15" width="5" height="5" fill="#2c3e50"/>
    <rect x="15" y="20" width="5" height="5" fill="#2c3e50"/>
    <rect x="25" y="20" width="5" height="5" fill="#2c3e50"/>
    <rect x="30" y="20" width="5" height="5" fill="#2c3e50"/>
    <rect x="15" y="25" width="5" height="5" fill="#2c3e50"/>
    <rect x="20" y="25" width="5" height="5" fill="#2c3e50"/>
    <rect x="25" y="25" width="5" height="5" fill="#2c3e50"/>
    <rect x="30" y="25" width="5" height="5" fill="#2c3e50"/>
    <rect x="35" y="25" width="5" height="5" fill="#2c3e50"/>
    <rect x="20" y="30" width="5" height="5" fill="#2c3e50"/>
    <rect x="25" y="30" width="5" height="5" fill="#2c3e50"/>
    <rect x="30" y="30" width="5" height="5" fill="#2c3e50"/>
    <!-- Duplicate/copy effect - second canvas slightly offset -->
    <g opacity="0.6" transform="translate(15, 15)">
      <rect x="10" y="10" width="30" height="30" fill="#f8f9fa" stroke="#dee2e6" stroke-width="1"/>
      <!-- Same black pixel pattern on duplicate -->
      <rect x="15" y="15" width="5" height="5" fill="#2c3e50"/>
      <rect x="20" y="15" width="5" height="5" fill="#2c3e50"/>
      <rect x="25" y="15" width="5" height="5" fill="#2c3e50"/>
      <rect x="15" y="20" width="5" height="5" fill="#2c3e50"/>
      <rect x="25" y="20" width="5" height="5" fill="#2c3e50"/>
      <rect x="30" y="20" width="5" height="5" fill="#2c3e50"/>
      <rect x="15" y="25" width="5" height="5" fill="#2c3e50"/>
      <rect x="20" y="25" width="5" height="5" fill="#2c3e50"/>
      <rect x="25" y="25" width="5" height="5" fill="#2c3e50"/>
      <rect x="30" y="25" width="5" height="5" fill="#2c3e50"/>
      <rect x="35" y="25" width="5" height="5" fill="#2c3e50"/>
      <rect x="20" y="30" width="5" height="5" fill="#2c3e50"/>
      <rect x="25" y="30" width="5" height="5" fill="#2c3e50"/>
      <rect x="30" y="30" width="5" height="5" fill="#2c3e50"/>
    </g>
  </g>
</svg>